<svg aria-hidden="true" style="position: absolute; width: 0; height: 0; overflow: hidden;" version="1.1" xmlns="http://www.w3.org/2000/svg" xmlns:xlink="http://www.w3.org/1999/xlink">
<defs>
<symbol id="icon-cancel" viewBox="0 0 16 16">
<path d="M15.361 3.387l-4.598 4.627 4.598 4.599c0.193 0.192 0.193 0.504 0 0.696l-2.088 2.088c-0.191 0.193-0.503 0.193-0.695 0l-4.591-4.591-4.564 4.591c-0.192 0.193-0.503 0.193-0.696 0l-2.087-2.088c-0.192-0.193-0.192-0.504 0-0.696l4.564-4.591-4.563-4.563c-0.192-0.192-0.192-0.503 0-0.696l2.087-2.087c0.192-0.193 0.503-0.193 0.696 0l4.555 4.555 4.599-4.627c0.193-0.193 0.504-0.193 0.696 0l2.088 2.087c0.191 0.192 0.191 0.504-0.001 0.696z"></path>
</symbol>
<symbol id="icon-menu" viewBox="0 0 16 16">
<path d="M1 3h14v3h-14zM1 7h14v3h-14zM1 11h14v3h-14z"></path>
</symbol>
</defs>
</svg>
